<?xml version="1.0" encoding="utf-8"?>
<svg version="1.1" id="Bowser" xmlns="http://www.w3.org/2000/svg" xmlns:xlink="http://www.w3.org/1999/xlink" x="0px" y="0px"
	 viewBox="0 0 1090.7 1489.3" style="enable-background:new 0 0 1090.7 1489.3;" xml:space="preserve">
<style type="text/css">
	.st0{fill:#EF4123;}
	.st1{fill:#00A14B;}
	.st2{fill:#FFFFFF;}
	.st3{fill:#ED1C24;}
	.st4{fill:#FCC79B;}
	.st5{fill:#C16544;}
	.st6{fill:#F2CF9A;}
</style>
<g>
	<path class="st0" d="M817.5,31c0,0-72.3,68.1-178,32.9c-115-38.3-209,30.1-220,112.3c-16.6-52.1-2.7-96.8-2.7-96.8
		c-65.7,20.1-150.6,147-29.2,265.6c127.7-41.7,254.8-35.3,350.9,17.8c26.1-21.4,46.2-31.4,96.4-12.7
		c59.6-28.4,100.4-78.1,100.4-78.1c-31.6-30.5-87.6-22.8-87.6-22.8c30.1-52.9,27.4-116.8,27.4-116.8c-57.2,59-92.2,47.5-92.2,47.5
		C836.6,97.3,817.5,83,817.5,31"/>
	<polygon class="st1" points="269.9,421.2 377.1,345.7 512.2,316.5 608.4,318.9 738.5,362.8 814.2,433.4 871.5,525.9 903.1,634.3 
		942.1,668.4 859.3,681.8 769.2,736.6 714.4,724.4 670.5,730.3 617,685.5 543.5,666.5 472,685.5 416.5,730.3 379.5,726.9 
		327.1,734.2 240.7,681.8 154.2,670.8 193.2,627 207.8,530.8 	"/>
	<path class="st2" d="M454.3,633.2c0,0-31.1-7.8-79-41.7c-47.9-33.9-94.7-46.3-94.7-46.3s-4.8,76.1,19,108.6
		c51.1,7.5,143,51.4,143,51.4S459,672.4,454.3,633.2"/>
	<path class="st3" d="M431.3,628l-47.5-30.5c-15.1,15.8-21.8,41.2,0.4,55C406.4,666.4,426.2,645.9,431.3,628"/>
	<path class="st4" d="M543.5,666.5c49.4,0,99.1,28.3,127,63.8c34.3-5.6,88.1,7.7,88.1,7.7s123.3-129.2,243.8-29.7
		c120.5,99.5,57.5,338.7-82.2,384.3c-7.3,32.9-51.5,149.5-107.8,199.5c69.8,79.2,43.4,266.8-269,123
		c-312.5,143.8-338.9-43.8-269-123c-56.3-50-100.5-166.7-107.8-199.5C27,1046.9-35.9,807.8,84.5,708.3
		C205,608.8,328.4,738,328.4,738s53.7-13.3,88.1-7.7C444.4,694.8,494.1,666.5,543.5,666.5"/>
	<path class="st3" d="M543.5,1233.7c46.7,0,68.1-7.4,164.4,29c45.2-93.8,133.3-224.5,183.3-261.2c-34-55-89.7-39-89.7-39
		c-69.8,48.6-138.4,87.8-258.1,14.9c-119.7,73-185.7,21.3-245.1-14.2c0,0-58.4-9.1-92.4,45.9c50,36.7,118.7,166.3,164,260.1
		C466.2,1232.7,496.8,1233.7,543.5,1233.7"/>
	<path class="st2" d="M441.6,1015.7c0,0-54.2,3.2-95.3-20.4c10.3,66.5,31.6,110.6,46.4,113C407.6,1110.6,433.2,1049.5,441.6,1015.7"
		/>
	<path class="st2" d="M322.5,982.1L262.7,939c0,0,0.5,75.8,14,83.1C290.2,1029.3,322.5,982.1,322.5,982.1"/>
	<path class="st2" d="M281.9,1099.9c0,0,37.4-42.5,46.9-31.8c9.5,10.7-2.4,102.5-2.4,102.5L281.9,1099.9z"/>
	<path class="st2" d="M370.9,1265.2c0,0,33.4-114.8,59.6-126c26.2-11.1,55.2,91,55.2,91L370.9,1265.2z"/>
	<path class="st5" d="M354.4,355.9c0,0-89-70.6-165.1,57.6c-76.2,128.2-28.9,176.7,4.4,181.5C221,511.1,273.1,403.9,354.4,355.9"/>
	<path class="st0" d="M465.9,516.2c0,0-51.8-8.7-80.1-76.2c-28.3-67.6-144.4-116.4-187.4-23.1c21.2,3,32.2,4.8,32.2,4.8
		c-32.9,19.4-54.6,60.5-46.6,98.6l42.4-10.5l-0.5,54.3c0,0,46.6-54.8,132.5,14.5c85.8,69.3,116.8,46.7,116.8,46.7
		S456.4,580,465.9,516.2"/>
	<path class="st6" d="M143.4,505.9c0,0,42.3-112.4,102.3-154.6c-109.8-74.5-144.1-133.7-140.3-215c0.9-18.5-29.6-22.2-50.6,18.6
		C-1.5,264.3,11.8,378.8,143.4,505.9"/>
	<path class="st2" d="M632.7,633.2c0,0,31.1-7.8,79-41.7c47.9-33.9,94.7-57.2,94.7-57.2s19,79.2-4.7,111.6
		c-51.1,7.5-157.2,59.2-157.2,59.2S627.9,672.4,632.7,633.2"/>
	<path class="st3" d="M655.7,628l47.5-30.5c15.1,15.8,21.8,41.2-0.4,55C680.6,666.4,660.8,645.9,655.7,628"/>
	<path class="st2" d="M659.1,1024.4c0,0,54.2,3.3,95.3-20.4c-10.3,66.5-31.6,110.6-46.4,113C693,1119.2,667.5,1058.2,659.1,1024.4"
		/>
	<path class="st2" d="M762.8,987.3l59.9-43.1c0,0-0.5,75.8-14,83.1C795.2,1034.5,762.8,987.3,762.8,987.3"/>
	<path class="st2" d="M810.5,1079.8c0,0-28.8-43.3-38.3-32.6c-9.5,10.7-12.2,102.3-12.2,102.3L810.5,1079.8z"/>
	<path class="st2" d="M713.2,1263c0,0-25.8-112.6-52.1-123.8c-26.2-11.1-55.2,91-55.2,91L713.2,1263z"/>
	<path class="st5" d="M732.6,355.9c0,0,88.9-70.6,165.1,57.6c76.2,128.2,28.9,176.7-4.4,181.5C866,511.1,813.9,403.9,732.6,355.9"/>
	<path class="st0" d="M621.1,516.2c0,0,42.8-2.8,79.1-79.4c34.6-73,137.8-99.5,180.7-6.2c-21.2,3-23.3-2.7-23.3-2.7
		c32.9,19.4,53.7,62.1,45.6,100.2l-50.8-17.3l-3,47.2c4.2,5-34.9-54.8-121,20.6c-83,72.7-116.8,46.7-116.8,46.7
		S630.5,580,621.1,516.2"/>
	<path class="st6" d="M943.6,505.9c0,0-42.2-112.4-102.3-154.6C951,276.8,977.9,233.2,974.1,151.9c-0.9-18.5,24.3-23.2,45.3,17.6
		C1075.7,278.9,1075.2,378.8,943.6,505.9"/>
	<path class="st2" d="M395.5,621.1c0,3.7-3,6.6-6.7,6.6c-3.7,0-6.6-3-6.6-6.6c0-3.7,3-6.6,6.6-6.6
		C392.5,614.5,395.5,617.5,395.5,621.1"/>
	<path class="st2" d="M679.6,631.6c0,3.3-2.7,6-6,6c-3.3,0-6-2.7-6-6c0-3.3,2.7-6,6-6C677,625.7,679.6,628.3,679.6,631.6"/>
	<path d="M929.1,901.2c-5.2-23.6-23.4-55.3-36.9-69.1c-10.3-10.6-20.8-12.1-16.9-7.5c0,0,11.2,17.4,21.1,44.2
		c-15.2,16.2-58,58.3-134.7,107.7c-98.9,63.6-172.9,19.7-218.2-21.8c-45.4,41.4-116.2,80.7-215.1,17.1
		c-75.2-48.4-102.8-82.5-111.6-95.9c16.6-27.2,33.7-45.8,33.7-45.8c3.9-4.6-7.4-1.2-15.2,4c-7.3,4.9-36.1,24.9-57.8,73.9
		c-15.3,34.7-13.7,71.5-13,74.4c0.9,4.1,6.9,9.9,13,15.8c68.6,66.1,139,166.5,178.8,273.6c-12.8,10.1-21.1,20-25.1,27.9
		c-5.8,11.6,0.1,9.2,8.1,4c66.4-43.3,118.4-60.1,204.2-60.1c85.8,0,131.6,10.6,198,53.9c8,5.2,13.9,7.6,8.1-4
		c-4.3-8.7-13.3-19.2-27.5-29.6c47.6-133.3,135.1-222.1,203.6-276.4c3.6-2.9,7.5-6.3,8.7-9.1C935.7,975.3,938.4,943.8,929.1,901.2
		 M819.2,963.2c-1.5,14.7-4.3,28.4-8.6,44.2c-2.1,8-4.7,9.7-9.8,6c-2.7-2-11.6-12.4-19-24.2C794.8,980.4,807.3,971.7,819.2,963.2
		 M743.6,1012c-6.4,31.7-14,63-27.7,85.6c-5,8.2-8.5,9.9-14.5,2.4c-4-5.1-22.2-36.2-34.8-66.9C691.3,1032.1,717.1,1025.3,743.6,1012
		 M429.9,1030.5c-12.1,30.4-25.9,56-29.9,61.1c-4.3,5.5-10.3,6.5-14.5-0.4c-13.7-22.5-22.5-47.9-29-78.9
		C382,1024.2,406.5,1030,429.9,1030.5 M312.6,987.2c-10.8,12.2-24.3,24.1-27.3,26.3c-3.2,2.4-6.6,0.1-7.4-3.1
		c-3.3-14.8-4.7-32.7-4.3-50.7C285.4,968.5,298.3,977.8,312.6,987.2 M322.9,1150.2c-9.4-15.3-19.4-30.7-30.1-46.2
		c11.8-16.6,25.2-26.8,28.3-28.9c3.3-2.3,5,1.6,5.2,7.1C326.5,1087.5,326.3,1117.7,322.9,1150.2 M385.7,1253.1
		c16.7-62.6,36.7-91.2,40.2-96.6c5.1-7.7,8.5-10.1,16.5,0c7,8.9,20.7,36,32.4,68.3C437.9,1230.7,408.3,1241.2,385.7,1253.1
		 M700.4,1250.9c-19.4-10-44.8-19-76.8-24.7c6-32.6,19.2-62.9,26.2-71.8c8-10.1,9.9-7.8,14.8,0c9.1,14.5,26.7,45.3,36.5,94.5
		C700.9,1249.6,700.6,1250.2,700.4,1250.9 M769.3,1119.8c0.9-27.1,3.4-48.5,3.9-53.2c0.8-7.9,4.3-10.9,7.3-7.1
		c2,2.5,8.7,10.4,15.2,25.6C786.5,1096.4,777.7,1107.9,769.3,1119.8 M807.1,1071.7c-8.6-15.2-19-26.6-26.4-31.9
		c-7.2-5.2-13.8-5.7-17.7,8.3c-3.7,13.4-11.9,55-10.6,97.2c-15.7,24.8-29.4,50.6-40.8,77.3c-10.9-39.5-22-61.7-41.9-92.9
		c-8-12.5-15.6-10.5-21.4-4.7c-6.3,6.3-30.9,39.1-44.3,98.2c-18.3-2.3-38.2-3.7-60.4-3.7c-16.9,0-32.7,0.9-47.5,2.5
		c-15.1-47.2-44.5-86.2-49.3-92.4c-5-6.4-12.8-6-22.3,2.4c-10.1,8.9-40.3,48.9-56.4,102.5c-8.6-19.3-19.2-40-31.4-61.3
		c8.3-45.2,5.7-95.6,2.8-109.7c-2-9.7-6.3-9.2-15-6.3c-8.3,2.8-28.9,15.7-42.6,31.2c-19.6-27.3-40.7-54.1-62.7-79.1
		c11.9-14.4,25.6-23.6,38.4-29.4c2,18.6,5.8,35.7,9.7,46c3.9,10.2,11.7,11.6,19.9,5.8c10.6-7.5,26.1-23.2,37.6-36.6
		c3.5,2.2,6.9,4.1,10.3,6.1c5.9,44.2,31.5,94.5,48,115.6c6.3,7.9,13,7.2,18.9,0.7c13.4-14.7,37-55,51.7-88.3
		c32.4-4.4,62.5-19.2,89.8-42.8c29.6,25.6,63.1,41.9,99.3,45.9c14.4,33.7,44.1,78,57.3,92.4c5.9,6.5,12.7,7.2,18.9-0.7
		c16.7-21.1,40.6-79.3,46.2-124.1c0.2-0.1,0.4-0.2,0.6-0.4c1.3-0.8,2.6-1.7,3.9-2.5c8.7,14.6,20.2,29.2,30.1,36.3
		c8.2,5.8,15.9-2.2,19.7-12.4c4.2-11.1,9-25.5,12.4-44.3c13.8,5,28.5,13.7,40.9,28.3C849.4,1025.7,827.4,1048.1,807.1,1071.7
		 M588.7,816.8c17.5-27.5,40.9-44.2,52-37.9c10.1,5.7,6.9,23.8-3,34c-4.4,4.5,6.9,2.2,14.8-6.3c10-11.3,15-33.1-0.4-43.6
		c-21-14.3-49,10-60.8,34.8C586.4,808.1,585.6,821.8,588.7,816.8 M442.6,806.6c-10-11.3-15-30.4,0.4-40.9c21-14.3,49,7.2,60.8,32
		c4.9,10.4,5.8,24.1,2.7,19.1c-17.6-27.5-40.9-41.4-52-35.2c-10.1,5.7-6.9,21.1,3,31.3C461.8,817.4,450.5,815.1,442.6,806.6
		 M1041.9,716.4c-30.6-36-57.3-49.5-74.4-54.4c-11.9-13.6-34.5-31-46.9-36.2c-0.2-4.9-0.7-8.6-1.3-13.5
		c18.4-6.5,31.9-19.7,39.2-38.2c6.8-17.5,7.8-38.5,2.9-62.5c66.7-52.4,110.3-142.5,111-230.1c0.6-67-24.2-122.2-69.8-155.4
		c-6.1-4.5-13-6.9-19.3-6.9c-13.1,0-21.6,10-21.6,25.6c0,37.6-10.5,71.9-31.3,101.7c-19.9-9.2-37.3-12.6-49.1-13.8
		c15.6-38.2,19.8-96.5,9-128.7c-3.2-9.4-6.8-14-11-14c-3.5,0-6.7,3.1-9.9,9.5c-5.1,10.3-22.5,30.2-41.8,41.8
		c21.3-62.3,11.9-115.8,6.7-129.9C832,5.5,829.4,0,824.5,0c-2.9,0-6.1,2-10.4,6.5c-34.8,37.2-70.4,40.2-110,40.2
		c-21.8,0-47.4-2.8-83.1-9.2c-15.6-2.8-31-4.2-45.8-4.2c-79,0-124.9,41-143.7,62.8c0.1-2,0.2-4.3,0.3-6.8c0.3-7.4,0.7-15.8,1.1-18.7
		c0.6-4,0-7-1.7-8.9c-2.8-3.3-8.3-3.2-16.6,0.3c-54.8,23.5-95.2,70.6-105.6,123c-10.3,52.1,6,104.8,46,148.6
		c-0.3,0.3-0.7,0.7-1.2,1.2c-0.3,0.3-0.8,0.8-1.1,1.1c-31.1-26.9-67.2-29.7-105.1-8.2C173.3,294,124.5,213.4,123.3,122.1
		c-0.2-11.2-9.1-19.1-21.9-19.1c-7.1,0-14.8,2.3-23.1,6.9c-52.6,29.3-77,101.3-77.4,155.8c-0.7,92.1,48.5,189.8,125.2,249.4
		c-2.5,43.4,15.3,79.6,45.7,92.8c-0.4,4.7-0.4,9.1-0.4,13.4c0,1.7,0,3.4,0,5.1c-12,6.9-25,20.4-33.4,31.1
		c-35.6,9.1-61,21.3-92.8,58.7c-42.6,50.1-56.3,132.5-35.7,215c21.1,84.7,72.9,150,142.3,179.4c19.9,79.7,63.1,151.1,95.4,184.5
		c-33.7,50.9-33.7,107.6,0,151.8c21,27.5,57,42.1,104,42.1c53.8,0,122.1-19.3,192.4-54.3c70.6,35.2,136.3,53.9,189.9,53.9
		c47.2,0,82.9-15,103.5-43.4c28.3-39,24.8-101.2-8.4-151.8c36.6-35.4,99.6-105,119.7-182c65-27.7,113.6-88.8,133.2-167.9
		C1102.5,858.8,1087,769.5,1041.9,716.4 M903.5,581c-5.3-18.7-12.6-36.3-20.4-50.6c9.8,5.6,20.2,12.3,27.2,19
		c11-45.5-9.4-88.2-28.9-109.5c3.3,0.1,10.4,3.1,10.4,3.1c-0.3-6.4-1.4-12.6-3.2-18.6c0.2,0.2,0.3,0.5,0.5,0.7
		C931.9,483.5,960,572.1,903.5,581 M623.9,618.5c9.8-30.9,12.4-66.7,6.7-95.3c16-1.2,34.9-13,49.6-37.6
		c31.5-52.5,56.5-113.2,124.4-104.5c28.5,3.6,51.9,24.1,58.9,39.7c0,0-19.1-9.3-38.6-2.9c48.7,20.9,67.5,66.1,70.5,102.2
		c0,0-40-26.1-71.7-28.2c11.4,12.3,21.3,35.4,19,52.7c-13.9-13.4-50.1-21.6-95,9.6C690.6,593.7,651.2,627.9,623.9,618.5
		 M635.9,681.9c-10.2-7.3-21.7-13.9-34.3-19c6.2-7.8,11.5-17,16-27.2c3.1,1.8,6.5,2.9,10.1,3.6C628.1,651,630.5,665.8,635.9,681.9
		 M757.4,358.6c30-19,59.9-7.4,87.1,16.2c-13.8-6.7-30.4-10.9-49.3-11.5c-10.2-0.3-19.4,0.6-27.9,2.6
		C764.1,363.4,760.8,361,757.4,358.6 M642.9,639c2.6-0.5,5.3-1.2,7.9-2c4.7,14.6,18.3,25.2,34.5,25.2c20,0,36.3-16.2,36.3-36.3
		c0-9.6-3.8-18.3-9.8-24.7c19-14.5,36.3-29.3,48.2-37.2c14.3-9.4,27-15.1,39.1-16.6c11,31.1,8.3,75.9-7.6,98.6
		c-45,1.8-94.4,19.2-133.4,42.9C646.3,673.5,642.1,652.6,642.9,639 M839.7,658.4c7,0.2,4.8-7.2-13.9-10.4c-4.7-0.8-9.6-1.3-14.5-1.6
		c17.6-25.3,16.5-56.6,11.1-96.6c11.1,3.8,22.2,11.5,34.1,23.4c4.2-13.5,4.7-28.6,2.7-43.1c22.7,29.4,32.8,83.2,31.1,110.9
		c9.5,3.7,20.4,10.1,28.9,17.6c-46.6-0.5-96.7,24.1-152.1,68c-19.6-7.1-61.3-13-93.4-7.3c-3.2-4.5-6.9-9-11-13.5
		C710.6,672.8,772.8,656.8,839.7,658.4 M986.8,159.7c0.6-9.2,5.2-9.8,11.9-3.7c76.5,70.1,45.1,243.7-55,327.8
		c-7.6-20.1-18.9-41.9-34.6-65.1c-20.9-30.9-41.4-52.8-61-67.2C956.6,288.2,981.4,239.6,986.8,159.7 M406.8,91.2
		c-9.3,63-0.5,113.2,22.8,126.9c-21-100.4,74.5-167,184.4-150.6c105.6,15.8,152.4,16.1,195.1-21.2c2.9,55-14.4,111.6-54.5,149.9
		c43.8,1.8,87.6-18.3,108.4-43.4c0,42.3-19.6,89.3-48.1,113.9c30.9-9.3,73.6-9.4,99.5,2.4c-23.7,25.3-55.9,47.2-96.7,65.5
		c-29.5-10.9-56.7-5.1-80.2,11.7c-58.8-32.5-133.4-43.8-194-43.8c-47,0-102.4,6.8-152.3,25C311.5,258.7,328.8,140.1,406.8,91.2
		 M543.5,327.2c78.3,0,146.4,17.5,195,51.1c-28.8,19.1-49,54.9-75.6,99.9c-15.3,25.9-29.5,25.9-40.8,19.3
		c-5.4-10.7-12.8-18.9-22.4-23.1c-5.3-2.3,9.8,19.8,12.2,49.6c3.9,42.4-3.6,104.1-31.6,132.1c-11.5-2.8-23.8-4.4-36.9-4.4
		c-13,0-25.3,1.7-36.7,4.6c-28-27.9-35.6-89.7-31.7-132.2c2.4-29.8,17.5-51.9,12.2-49.6c-9.5,4.2-16.9,12.4-22.4,23.1
		c-11.2,6.6-25.5,6.6-40.8-19.3c-24.3-41.1-48.9-76.9-76.6-99.2C396.2,344.9,464.6,327.2,543.5,327.2 M485.7,663.3
		c-9.7,4-18.6,9-26.7,14.5c3.3-12.7,3.6-25.9,3.7-39.2c2.4-0.7,4.7-1.6,6.8-2.8C474,646.1,479.5,655.4,485.7,663.3 M334.1,355.7
		c-3.8,2.5-7.5,5-11.1,7.7c-12-5.6-24.6-8.8-38.1-8.8c-11.8,0-22.6,1.5-32.3,4.1C278.3,340.5,306.4,334.9,334.1,355.7 M282.4,371.2
		c54.6,0,92.8,61.8,124.4,114.3c14.8,24.6,33.6,36.4,49.6,37.6c-5.7,28.6-3.1,64.4,6.7,95.3c-27.5,9.4-68.7-25.2-126.1-64.3
		c-53-36.1-90.2-16.7-104.1-3.3c-2.3-17.3,0.9-43.4,12.3-55.7c-31.7,2.2-55.2,16.4-55.2,16.4c3-36,17-72.8,65.7-93.7
		c-26-6.4-40.8-5.8-40.8-5.8C224.8,380.6,253.6,371.2,282.4,371.2 M216.5,550.2c1.1,10.9,3.6,21.3,6.5,30.6
		c15.8-15.8,31.5-25.9,47.8-29.4c-1.6,33.4-1.9,71.7,16.9,97.2c-2.6,0.2-5.2,0.5-7.8,0.9c-18.8,2.8-20.9,10.5-13.9,10.3
		c56.7-1.3,120.8,19.9,160.3,47.2c-3.7,4.3-7,8.6-10,12.9c-31.2-6.5-64.2-0.6-84.4,6.7c-53.4-42.2-104.3-67.8-152.4-69.4
		c7.4-8.8,16.9-16.8,24.2-21.5C202.2,612.2,207.7,575.9,216.5,550.2 M307.5,648.1c-16.2-21.6-17.2-72.2-14.8-97.5
		c10.6,1.6,21.5,6,32.8,13.4c11.8,7.8,29.1,22.4,48.1,36.8c-5.5,6.4-8.9,14.6-8.9,23.7c0,20,16.2,36.3,36.3,36.3
		c15.7,0,29-10.1,34-24c4.2,1.3,8.3,2.3,12.2,2.7c1.4,19.2-2.2,40.2-9.8,54.9C397.1,667.7,349.9,649.8,307.5,648.1 M141.5,482.4
		c-113-95-147.6-262.5-57.4-345c6.7-6.1,11.3-5.5,11.9,3.7c5.4,79.5,23.5,151.6,128.2,215.4c-15.3,13.8-31,32.1-47,55.7
		C159.6,438.1,148,461.4,141.5,482.4 M193.8,423.5c-0.1,1.8-0.3,3.6-0.3,5.4c8.3-3.6,12.5-3.1,17.5-3.1
		c-20.9,18.7-43.5,62.1-33.4,111.8c8.6-6.7,18.8-11.3,26.7-14.2c-6.5,14.1-12.3,32.4-16.3,52.5C128.4,543.1,160.5,473.2,193.8,423.5
		 M921.6,1083.5c-25.5,90.8-84.9,154.7-136,202.2c34.2,46.3,47,105.5,23.9,134.5c-46.4,58-134.3,41.3-266-15.8
		c-131.6,57.1-222.1,74.9-269.1,17.4c-26-31.8-18.7-87.9,15.5-134.2c-51.1-47.5-88.5-119.6-114.1-210.4
		C28.6,1032.1,5.5,818.8,71.8,741.2c62.9-73.7,142.8-81.2,257.9,10.5c19.8-11.8,53.2-17.3,76.2-14.1c-6.3,12.8-9,24.3-7.7,31.9
		c0.4,2.2,1.3,3.2,6.6-5.3c29.4-47,74.6-84.2,138.8-84.2c64.2,0,112.2,34.5,141.6,81.5c5.3,8.5,6.2,7.5,6.6,5.3
		c1.2-7.2-1.3-17.8-7.2-29.6c24.9-2.4,65.7,3.2,84.7,14.5c110.7-88.3,190.1-82.4,249-13.4C1084.4,815.8,1068.8,1038.5,921.6,1083.5
		 M711.8,626c0,14.6-11.8,26.5-26.5,26.5c-11.9,0-21.9-8-25.2-18.8c3.3-1.4,6.7-3.1,10.1-4.8c1.7-0.9,3.4-1.8,5.1-2.8
		c2.5,0.7,4.3,2.9,4.3,5.6c0,1.7-0.7,3.2-1.9,4.3c2.1,1.6,4.7,2.6,7.6,2.6c7,0,12.6-5.7,12.6-12.6c0-4.4-2.3-8.3-5.7-10.6
		c3.9-2.7,7.8-5.4,11.6-8.2C708.7,612,711.8,618.6,711.8,626 M425.9,633.3c-3.6,10.3-13.3,17.7-24.9,17.7
		c-14.6,0-26.5-11.9-26.5-26.5c0-6.9,2.7-13.1,7-17.8c3.9,2.8,7.9,5.6,11.9,8.3c-0.3,0.2-0.5,0.5-0.8,0.8c1.7,1.2,2.8,3.1,2.8,5.3
		c0,3.5-2.7,6.3-6.2,6.6c1.4,5.2,6.1,9,11.7,9c5.9,0,10.8-4.2,11.9-9.7C417.4,629.4,421.7,631.5,425.9,633.3"/>
</g>
</svg>